{
  "accessors": [
    {
      "bufferView": 3,
      "componentType": 5126,
      "count": 24,
      "max": [
        0.5313071608543396,
        0.14220230281352997,
        0.0010865929070860147
      ],
      "min": [
        0.5313071608543396,
        0.14002907276153564,
        -0.0010865929070860147
      ],
      "type": "VEC3"
    },
    {
      "bufferView": 3,
      "byteOffset": 288,
      "componentType": 5126,
      "count": 24,
      "max": [
        -1.0,
        0.0,
        0.00039999998989515007
      ],
      "min": [
        -1.0,
        0.0,
        -0.00039999998989515007
      ],
      "type": "VEC3"
    },
    {
      "bufferView": 2,
      "componentType": 5126,
      "count": 24,
      "max": [
        0.957489013671875,
        0.9474890232086182
      ],
      "min": [
        0.06251099705696106,
        0.052510976791381836
      ],
      "type": "VEC2"
    },
    {
      "bufferView": 1,
      "componentType": 5125,
      "count": 66,
      "type": "SCALAR"
    },
    {
      "bufferView": 3,
      "byteOffset": 576,
      "componentType": 5126,
      "count": 424,
      "max": [
        0.17905591428279877,
        0.06050773710012436,
        0.018457163125276566
      ],
      "min": [
        0.09774229675531387,
        -0.09203722327947617,
        -0.018457163125276566
      ],
      "type": "VEC3"
    },
    {
      "bufferView": 3,
      "byteOffset": 5664,
      "componentType": 5126,
      "count": 424,
      "max": [
        1.0,
        1.0,
        1.0
      ],
      "min": [
        -1.0,
        -0.9910629391670227,
        -1.0
      ],
      "type": "VEC3"
    },
    {
      "bufferView": 2,
      "byteOffset": 192,
      "componentType": 5126,
      "count": 424,
      "max": [
        0.9962000250816345,
        0.9940999746322632
      ],
      "min": [
        0.006500000134110451,
        0.005900025367736816
      ],
      "type": "VEC2"
    },
    {
      "bufferView": 1,
      "byteOffset": 264,
      "componentType": 5125,
      "count": 3852,
      "type": "SCALAR"
    },
    {
      "bufferView": 3,
      "byteOffset": 10752,
      "componentType": 5126,
      "count": 14164,
      "max": [
        0.5764555931091309,
        0.14819903671741486,
        0.03951496630907059
      ],
      "min": [
        -0.2240808606147766,
        -0.05120094120502472,
        -0.04745681956410408
      ],
      "type": "VEC3"
    },
    {
      "bufferView": 3,
      "byteOffset": 180720,
      "componentType": 5126,
      "count": 14164,
      "max": [
        1.0,
        1.0,
        1.0
      ],
      "min": [
        -1.0,
        -1.0,
        -1.0
      ],
      "type": "VEC3"
    },
    {
      "bufferView": 4,
      "componentType": 5126,
      "count": 14164,
      "max": [
        1.0,
        1.0,
        1.0,
        1.0
      ],
      "min": [
        -1.0,
        -1.0,
        -1.0,
        -1.0
      ],
      "type": "VEC4"
    },
    {
      "bufferView": 2,
      "byteOffset": 3584,
      "componentType": 5126,
      "count": 14164,
      "max": [
        0.9991999864578247,
        1.0012999773025513
      ],
      "min": [
        0.0012000000569969416,
        -0.00010001659393310547
      ],
      "type": "VEC2"
    },
    {
      "bufferView": 1,
      "byteOffset": 15672,
      "componentType": 5125,
      "count": 62406,
      "type": "SCALAR"
    },
    {
      "bufferView": 3,
      "byteOffset": 350688,
      "componentType": 5126,
      "count": 14164,
      "max": [
        0.5764555931091309,
        0.14819903671741486,
        0.03951496630907059
      ],
      "min": [
        -0.2240808606147766,
        -0.05120094120502472,
        -0.04745681956410408
      ],
      "type": "VEC3"
    },
    {
      "bufferView": 3,
      "byteOffset": 520656,
      "componentType": 5126,
      "count": 14164,
      "max": [
        1.0,
        1.0,
        1.0
      ],
      "min": [
        -1.0,
        -1.0,
        -1.0
      ],
      "type": "VEC3"
    },
    {
      "bufferView": 4,
      "byteOffset": 226624,
      "componentType": 5126,
      "count": 14164,
      "max": [
        1.0,
        1.0,
        1.0,
        1.0
      ],
      "min": [
        -1.0,
        -1.0,
        -1.0,
        -1.0
      ],
      "type": "VEC4"
    },
    {
      "bufferView": 2,
      "byteOffset": 116896,
      "componentType": 5126,
      "count": 14164,
      "max": [
        0.9991999864578247,
        1.0012999773025513
      ],
      "min": [
        0.0012000000569969416,
        -0.00010001659393310547
      ],
      "type": "VEC2"
    },
    {
      "bufferView": 1,
      "byteOffset": 265296,
      "componentType": 5125,
      "count": 62406,
      "type": "SCALAR"
    },
    {
      "bufferView": 3,
      "byteOffset": 690624,
      "componentType": 5126,
      "count": 684,
      "max": [
        0.17465649545192719,
        0.05875011160969734,
        0.012591545470058918
      ],
      "min": [
        0.10360054671764374,
        0.03279481455683708,
        -0.012179922312498093
      ],
      "type": "VEC3"
    },
    {
      "bufferView": 3,
      "byteOffset": 698832,
      "componentType": 5126,
      "count": 684,
      "max": [
        0.6089873909950256,
        0.9997238516807556,
        0.9997238516807556
      ],
      "min": [
        -0.9999696016311646,
        -0.9997238516807556,
        -0.9997238516807556
      ],
      "type": "VEC3"
    },
    {
      "bufferView": 2,
      "byteOffset": 230208,
      "componentType": 5126,
      "count": 684,
      "max": [
        0.9991000294685364,
        0.9994999766349792
      ],
      "min": [
        0.0005000000237487257,
        0.000500023365020752
      ],
      "type": "VEC2"
    },
    {
      "bufferView": 1,
      "byteOffset": 514920,
      "componentType": 5125,
      "count": 3096,
      "type": "SCALAR"
    },
    {
      "bufferView": 5,
      "componentType": 5126,
      "count": 12,
      "max": [
        1.0,
        0.0,
        0.0,
        0.0,
        0.0,
        1.0,
        1.0,
        0.0,
        0.0,
        0.0,
        1.0,
        0.0,
        0.0,
        0.022515760734677315,
        0.0,
        1.0
      ],
      "min": [
        1.0,
        0.0,
        0.0,
        0.0,
        0.0,
        0.0,
        0.0,
        0.0,
        0.0,
        -1.0000001192092896,
        0.0,
        0.0,
        -0.5199778079986572,
        -0.037260543555021286,
        -0.12934470176696777,
        1.0
      ],
      "type": "MAT4"
    },
    {
      "bufferView": 0,
      "componentType": 5123,
      "count": 24,
      "type": "VEC4"
    },
    {
      "bufferView": 4,
      "byteOffset": 453248,
      "componentType": 5126,
      "count": 24,
      "max": [
        1.0,
        0.0,
        0.0,
        0.0
      ],
      "min": [
        1.0,
        0.0,
        0.0,
        0.0
      ],
      "type": "VEC4"
    },
    {
      "bufferView": 0,
      "byteOffset": 192,
      "componentType": 5123,
      "count": 424,
      "type": "VEC4"
    },
    {
      "bufferView": 4,
      "byteOffset": 453632,
      "componentType": 5126,
      "count": 424,
      "max": [
        1.0,
        0.0,
        0.0,
        0.0
      ],
      "min": [
        1.0,
        0.0,
        0.0,
        0.0
      ],
      "type": "VEC4"
    },
    {
      "bufferView": 0,
      "byteOffset": 3584,
      "componentType": 5123,
      "count": 14164,
      "type": "VEC4"
    },
    {
      "bufferView": 4,
      "byteOffset": 460416,
      "componentType": 5126,
      "count": 14164,
      "max": [
        1.0,
        0.0,
        0.0,
        0.0
      ],
      "min": [
        1.0,
        0.0,
        0.0,
        0.0
      ],
      "type": "VEC4"
    },
    {
      "bufferView": 0,
      "byteOffset": 116896,
      "componentType": 5123,
      "count": 14164,
      "type": "VEC4"
    },
    {
      "bufferView": 4,
      "byteOffset": 687040,
      "componentType": 5126,
      "count": 14164,
      "max": [
        1.0,
        0.0,
        0.0,
        0.0
      ],
      "min": [
        1.0,
        0.0,
        0.0,
        0.0
      ],
      "type": "VEC4"
    },
    {
      "bufferView": 0,
      "byteOffset": 230208,
      "componentType": 5123,
      "count": 684,
      "type": "VEC4"
    },
    {
      "bufferView": 4,
      "byteOffset": 913664,
      "componentType": 5126,
      "count": 684,
      "max": [
        1.0,
        0.0,
        0.0,
        0.0
      ],
      "min": [
        1.0,
        0.0,
        0.0,
        0.0
      ],
      "type": "VEC4"
    }
  ],
  "asset": {
    "extras": {
      "author": "Назар Окружко (https://sketchfab.com/Deduska_1947)",
      "license": "CC-BY-4.0 (http://creativecommons.org/licenses/by/4.0/)",
      "source": "https://sketchfab.com/3d-models/under-development-sturmgewehr-n-1961-c520eed5335648beb08fc0834ecbb886",
      "title": "[Under Development] Sturmgewehr (N) 1961"
    },
    "generator": "Sketchfab-16.59.0",
    "version": "2.0"
  },
  "bufferViews": [
    {
      "buffer": 0,
      "byteLength": 235680,
      "byteStride": 8,
      "name": "shortBufferViews",
      "target": 34962
    },
    {
      "buffer": 0,
      "byteLength": 527304,
      "byteOffset": 235680,
      "name": "floatBufferViews",
      "target": 34963
    },
    {
      "buffer": 0,
      "byteLength": 235680,
      "byteOffset": 762984,
      "byteStride": 8,
      "name": "floatBufferViews",
      "target": 34962
    },
    {
      "buffer": 0,
      "byteLength": 707040,
      "byteOffset": 998664,
      "byteStride": 12,
      "name": "floatBufferViews",
      "target": 34962
    },
    {
      "buffer": 0,
      "byteLength": 924608,
      "byteOffset": 1705704,
      "byteStride": 16,
      "name": "floatBufferViews",
      "target": 34962
    },
    {
      "buffer": 0,
      "byteLength": 768,
      "byteOffset": 2630312,
      "name": "floatBufferViews"
    }
  ],
  "buffers": [
    {
      "byteLength": 2631080,
      "uri": "gun2.bin"
    }
  ],
  "images": [
    {
      "uri": "textures/rifle_a_baseColor.png"
    },
    {
      "uri": "textures/rifle_a_metallicRoughness.png"
    },
    {
      "uri": "textures/rifle_a_normal.png"
    }
  ],
  "materials": [
    {
      "doubleSided": true,
      "name": "Material",
      "pbrMetallicRoughness": {
        "baseColorFactor": [
          0.0,
          0.0,
          0.0,
          1.0
        ],
        "metallicFactor": 0.0,
        "roughnessFactor": 0.5
      }
    },
    {
      "doubleSided": true,
      "name": "rifle_a",
      "normalTexture": {
        "index": 2
      },
      "pbrMetallicRoughness": {
        "baseColorTexture": {
          "index": 0
        },
        "metallicRoughnessTexture": {
          "index": 1
        }
      }
    }
  ],
  "meshes": [
    {
      "name": "Object_0",
      "primitives": [
        {
          "attributes": {
            "JOINTS_0": 23,
            "NORMAL": 1,
            "POSITION": 0,
            "TEXCOORD_0": 2,
            "WEIGHTS_0": 24
          },
          "indices": 3,
          "material": 0,
          "mode": 4
        }
      ]
    },
    {
      "name": "Object_1",
      "primitives": [
        {
          "attributes": {
            "JOINTS_0": 25,
            "NORMAL": 5,
            "POSITION": 4,
            "TEXCOORD_0": 6,
            "WEIGHTS_0": 26
          },
          "indices": 7,
          "material": 0,
          "mode": 4
        }
      ]
    },
    {
      "name": "Object_2",
      "primitives": [
        {
          "attributes": {
            "JOINTS_0": 27,
            "NORMAL": 9,
            "POSITION": 8,
            "TANGENT": 10,
            "TEXCOORD_0": 11,
            "TEXCOORD_1": 11,
            "TEXCOORD_2": 11,
            "TEXCOORD_3": 11,
            "WEIGHTS_0": 28
          },
          "indices": 12,
          "material": 1,
          "mode": 4
        }
      ]
    },
    {
      "name": "Object_3",
      "primitives": [
        {
          "attributes": {
            "JOINTS_0": 29,
            "NORMAL": 14,
            "POSITION": 13,
            "TANGENT": 15,
            "TEXCOORD_0": 16,
            "TEXCOORD_1": 16,
            "TEXCOORD_2": 16,
            "TEXCOORD_3": 16,
            "WEIGHTS_0": 30
          },
          "indices": 17,
          "material": 1,
          "mode": 4
        }
      ]
    },
    {
      "name": "Object_4",
      "primitives": [
        {
          "attributes": {
            "JOINTS_0": 31,
            "NORMAL": 19,
            "POSITION": 18,
            "TEXCOORD_0": 20,
            "WEIGHTS_0": 32
          },
          "indices": 21,
          "material": 0,
          "mode": 4
        }
      ]
    }
  ],
  "nodes": [
    {
      "children": [
        1
      ],
      "matrix": [
        1.0,
        0.0,
        0.0,
        0.0,
        0.0,
        2.220446049250313e-16,
        -1.0,
        0.0,
        0.0,
        1.0,
        2.220446049250313e-16,
        0.0,
        0.0,
        0.0,
        0.0,
        1.0
      ],
      "name": "Sketchfab_model"
    },
    {
      "children": [
        2
      ],
      "name": "root"
    },
    {
      "children": [
        3
      ],
      "matrix": [
        1.0,
        0.0,
        0.0,
        0.0,
        0.0,
        2.220446049250313e-16,
        1.0,
        0.0,
        0.0,
        -1.0,
        2.220446049250313e-16,
        0.0,
        0.0,
        0.0,
        0.0,
        1.0
      ],
      "name": "GLTF_SceneRootNode"
    },
    {
      "children": [
        4
      ],
      "name": "sturmgewehr_61_ARM_16"
    },
    {
      "children": [
        5,
        7,
        9,
        11,
        13,
        15,
        6,
        8,
        10,
        12,
        14
      ],
      "name": "GLTF_created_0"
    },
    {
      "children": [
        16
      ],
      "name": "GLTF_created_0_rootJoint"
    },
    {
      "name": "glowsight.smd_11"
    },
    {
      "mesh": 0,
      "name": "Object_7",
      "skin": 0
    },
    {
      "name": "mag.smd_12"
    },
    {
      "mesh": 1,
      "name": "Object_9",
      "skin": 0
    },
    {
      "name": "rifle_a.smd_13"
    },
    {
      "mesh": 2,
      "name": "Object_11",
      "skin": 0
    },
    {
      "name": "rifle_b.smd_14"
    },
    {
      "mesh": 3,
      "name": "Object_13",
      "skin": 0
    },
    {
      "name": "round.smd_15"
    },
    {
      "mesh": 4,
      "name": "Object_15",
      "skin": 0
    },
    {
      "children": [
        17,
        18,
        19,
        20,
        21,
        22,
        23,
        24,
        25
      ],
      "name": "origin_10",
      "rotation": [
        -0.7071068286895752,
        0.0,
        0.0,
        0.7071068286895752
      ]
    },
    {
      "name": "cocking_handle_0",
      "translation": [
        0.29146862030029297,
        0.037260543555021286,
        0.10726269334554672
      ]
    },
    {
      "name": "safety_1",
      "translation": [
        0.019689491018652916,
        0.021863790228962898,
        0.05144008994102478
      ]
    },
    {
      "name": "trigger_2",
      "scale": [
        1.0,
        0.9999999403953552,
        1.0
      ],
      "translation": [
        0.04160173982381821,
        0.0,
        0.04140589013695717
      ]
    },
    {
      "name": "bolt_3",
      "translation": [
        0.13978709280490875,
        -0.022515760734677315,
        0.10327616333961487
      ]
    },
    {
      "name": "strap_attach_4",
      "scale": [
        1.0,
        0.9999999403953552,
        1.0
      ],
      "translation": [
        0.5199778079986572,
        0.0,
        0.03883631154894829
      ]
    },
    {
      "name": "lever_5",
      "translation": [
        0.05112355947494507,
        0.0163043811917305,
        0.12934470176696777
      ]
    },
    {
      "name": "armor_piercing_6",
      "translation": [
        0.5055444240570068,
        0.0,
        0.09574879705905914
      ]
    },
    {
      "name": "mag_7",
      "scale": [
        1.0,
        0.9999999403953552,
        1.0
      ],
      "translation": [
        0.13782379031181335,
        0.0,
        0.04107007756829262
      ]
    },
    {
      "children": [
        26
      ],
      "name": "marksman_9",
      "translation": [
        0.08417666703462601,
        -0.005354555323719978,
        0.12741675972938538
      ]
    },
    {
      "name": "marksman_flip_8",
      "translation": [
        -3.516674041748047e-06,
        -0.014541961252689362,
        -0.001528710126876831
      ]
    }
  ],
  "samplers": [
    {
      "magFilter": 9729,
      "minFilter": 9987,
      "wrapS": 10497,
      "wrapT": 10497
    }
  ],
  "scene": 0,
  "scenes": [
    {
      "name": "Sketchfab_Scene",
      "nodes": [
        0
      ]
    }
  ],
  "skins": [
    {
      "inverseBindMatrices": 22,
      "joints": [
        5,
        16,
        17,
        18,
        19,
        20,
        21,
        22,
        23,
        24,
        25,
        26
      ],
      "skeleton": 5
    }
  ],
  "textures": [
    {
      "sampler": 0,
      "source": 0
    },
    {
      "sampler": 0,
      "source": 1
    },
    {
      "sampler": 0,
      "source": 2
    }
  ]
}
